<svg id="Layer_1" data-name="Layer 1" xmlns="http://www.w3.org/2000/svg" viewBox="0 0 600 400">
  <defs>
    <style>
      .cls-1 {
        fill: none;
      }

      .cls-2 {
        fill: #3fa9ff;
      }

      .cls-3 {
        fill: #ed1c24;
      }
    </style>
  </defs>
  <title>logo</title>
  <rect id="BOX" class="cls-1" width="600" height="400"/>
  <g>
    <path class="cls-2" d="M58.86,330.27L155.08,79.73H190.8L293.33,330.27H255.57l-29.22-75.88H121.58L94.07,330.27H58.86Zm72.29-102.88h84.94L189.94,158q-12-31.61-17.77-52a319.42,319.42,0,0,1-13.5,47.85Z" transform="translate(0)"/>
    <path class="cls-3" d="M320.34,330.27V79.73H431.42q33.49,0,50.93,6.75t27.86,23.84a71.15,71.15,0,0,1,10.42,37.77q0,26.66-17.26,44.95T450,216.28q13.16,6.32,20,12.48,14.52,13.33,27.51,33.33l43.58,68.19h-41.7l-33.15-52.12q-14.53-22.56-23.93-34.52t-16.83-16.75a49.85,49.85,0,0,0-15.12-6.67q-5.64-1.19-18.46-1.2H353.49V330.27H320.34Zm33.15-140h71.26q22.73,0,35.55-4.7t19.48-15a40.67,40.67,0,0,0,6.67-22.47q0-17.77-12.9-29.22t-40.76-11.45h-79.3V190.3Z" transform="translate(0)"/>
  </g>
</svg>
